<?xml version="1.0" encoding="UTF-8" standalone="no"?>
<!-- Written by Treer (gitlab.com/Treer) -->

<svg
   version="1.1"
   width="600"
   height="600"
   stroke="black"
   stroke-width="30"
   fill="none"
   id="svg2"
   sodipodi:docname="abstract-user-flat-1.svg"
   inkscape:version="1.3.2 (091e20e, 2023-11-25, custom)"
   xmlns:inkscape="http://www.inkscape.org/namespaces/inkscape"
   xmlns:sodipodi="http://sodipodi.sourceforge.net/DTD/sodipodi-0.dtd"
   xmlns="http://www.w3.org/2000/svg"
   xmlns:svg="http://www.w3.org/2000/svg">
  <defs
     id="defs2" />
  <sodipodi:namedview
     id="namedview2"
     pagecolor="#ffffff"
     bordercolor="#000000"
     borderopacity="0.25"
     inkscape:showpageshadow="2"
     inkscape:pageopacity="0.0"
     inkscape:pagecheckerboard="0"
     inkscape:deskcolor="#d1d1d1"
     inkscape:zoom="2.0283333"
     inkscape:cx="299.75349"
     inkscape:cy="300"
     inkscape:window-width="2560"
     inkscape:window-height="1494"
     inkscape:window-x="-11"
     inkscape:window-y="-11"
     inkscape:window-maximized="1"
     inkscape:current-layer="svg2" />
  <title
     id="title1">Abstract user icon</title>
  <path
     style="color:#000000;fill:#000000;-inkscape-stroke:none"
     d="M 300,20 C 145.53809,20 20,145.53809 20,300 20,454.46191 145.53809,580 300,580 454.46191,580 580,454.46191 580,300 580,145.53809 454.46191,20 300,20 Z m 0,30 C 438.24872,50 550,161.75128 550,300 550,438.24872 438.24872,550 300,550 161.75128,550 50,438.24872 50,300 50,161.75128 161.75128,50 300,50 Z"
     id="circle1" />
  <path
     style="color:#000000;fill:#000000;-inkscape-stroke:none"
     d="m 300,100 c -71.61928,0 -130,58.38072 -130,130 0,71.61928 58.38072,130 130,130 71.61928,0 130,-58.38072 130,-130 0,-71.61928 -58.38072,-130 -130,-130 z m 0,30 c 55.40609,0 100,44.59391 100,100 0,55.40609 -44.59391,100 -100,100 -55.40609,0 -100,-44.59391 -100,-100 0,-55.40609 44.59391,-100 100,-100 z"
     id="circle2" />
  <path
     style="color:#000000;fill:#000000;-inkscape-stroke:none"
     d="m 300,330 c -93.06753,0 -176.17283,58.67884 -207.316406,146.38086 l 28.269536,10.03906 C 147.88304,410.58381 219.52431,360 300,360 c 80.47569,0 152.11696,50.58381 179.04687,126.41992 l 28.26954,-10.03906 C 476.17283,388.67884 393.06753,330 300,330 Z"
     id="path2" />
</svg>
