<svg width="100" height="100" viewBox="0 0 100 100" fill="none" xmlns="http://www.w3.org/2000/svg">
<g id="gis:location-poi-o">
<path id="Vector" d="M68.913 48.908L68.865 49.034C68.88 48.996 68.892 48.957 68.907 48.919L68.913 48.908Z" fill="white"/>
<path id="Vector_2" d="M50.002 0C33.524 0 20 13.48 20 29.922C20 36.294 22.04 42.232 25.48 47.096L25.357 46.904L44.563 80.102L44.66 80.229C45.434 81.239 46.2 82.053 47.127 82.666C48.054 83.279 49.241 83.666 50.407 83.549C52.737 83.315 54.091 81.705 55.342 80.009L55.42 79.904L76.594 43.87L76.611 43.84C77.118 42.925 77.485 42.002 77.799 41.108C79.2511 37.5573 79.9987 33.7581 80 29.922C80 13.48 66.48 0 50.002 0ZM50.002 5C63.756 5 75 16.218 75 29.922C75.0009 33.1229 74.3758 36.293 73.16 39.254L73.135 39.316L73.113 39.381C72.85 40.138 72.564 40.825 72.234 41.421L51.275 77.087C50.348 78.308 49.7 78.597 49.908 78.575C50.015 78.565 50.114 78.649 49.885 78.497C49.666 78.352 49.219 77.927 48.689 77.251L29.63 44.3L29.563 44.207C26.69 40.147 25 35.23 25 29.922C25 16.219 36.248 5 50.002 5ZM50.002 12.85C40.54 12.85 32.887 20.476 32.887 29.922C32.887 39.368 40.541 46.994 50.002 46.994C59.463 46.994 67.113 39.367 67.113 29.922C67.113 20.476 59.463 12.85 50.002 12.85ZM50.002 17.85C56.819 17.85 62.113 23.135 62.113 29.922C62.113 36.709 56.82 41.994 50.002 41.994C43.184 41.994 37.887 36.708 37.887 29.922C37.887 23.135 43.185 17.85 50.002 17.85Z" fill="#1F5B41"/>
<path id="Vector_3" d="M34.006 69.057C19.88 71.053 10 75.828 10 82.857C10 92.325 26.508 100 50 100C73.492 100 90 92.325 90 82.857C90 75.828 80.121 71.053 65.996 69.057L64.039 72.389C74.685 73.866 82 76.97 82 80.572C82 85.622 67.673 89.715 50 89.715C32.327 89.715 18 85.622 18 80.572C17.999 76.982 25.266 73.881 35.945 72.398C35.3 71.284 34.652 70.172 34.006 69.057Z" fill="#1F5B41"/>
</g>
</svg>
