<svg width="25" height="28" viewBox="0 0 25 28" fill="none" xmlns="http://www.w3.org/2000/svg">
<path d="M10.4 6.00001C11.2463 5.99988 12.061 6.32165 12.6787 6.90006C13.2965 7.47847 13.6712 8.2702 13.7267 9.11467L13.7334 9.33334V15.4733L19.6734 16.2813C20.9282 16.425 22.0914 17.0093 22.9558 17.9303C23.8201 18.8513 24.3296 20.0492 24.3934 21.3107L24.4 21.58V22C24.4023 23.5818 24.0515 25.1443 23.3734 26.5733C23.2213 26.8928 22.9485 27.1388 22.6151 27.2572C22.2817 27.3756 21.9148 27.3567 21.5954 27.2047C21.2759 27.0526 21.0298 26.7799 20.9114 26.4464C20.7931 26.113 20.812 25.7462 20.964 25.4267C21.414 24.48 21.6723 23.4536 21.724 22.4067L21.7334 22V21.58C21.7334 20.9604 21.5177 20.3601 21.1233 19.8822C20.7289 19.4044 20.1804 19.0788 19.572 18.9613L19.328 18.9253L13.42 18.1213C12.8078 18.049 12.2395 17.7668 11.8119 17.3226C11.3843 16.8785 11.1238 16.2999 11.0747 15.6853L11.0667 15.4733V9.33334C11.067 9.16674 11.0049 9.00607 10.8927 8.88296C10.7804 8.75985 10.6262 8.68322 10.4603 8.66817C10.2943 8.65312 10.1288 8.70073 9.99624 8.80163C9.86368 8.90253 9.7737 9.04941 9.74402 9.21334L9.73335 9.33334V20.6667C9.73314 20.9427 9.64725 21.2119 9.48755 21.437C9.32784 21.6622 9.1022 21.8322 8.84174 21.9237C8.58129 22.0151 8.29888 22.0235 8.03347 21.9476C7.76807 21.8717 7.53276 21.7153 7.36002 21.5L6.91735 20.9573L6.51335 20.4853C5.74135 19.6093 5.17868 19.1253 4.70002 18.8813C4.41716 18.7282 4.09451 18.6645 3.77468 18.6987L3.58668 18.7253L6.92535 25.404C7.07633 25.708 7.10567 26.0582 7.00739 26.3831C6.9091 26.708 6.6906 26.9832 6.39642 27.1526C6.10224 27.3219 5.75454 27.3727 5.42421 27.2946C5.09388 27.2164 4.80579 27.0152 4.61868 26.732L4.54135 26.596L0.838683 19.192C0.358683 18.232 0.714684 16.948 1.83468 16.488C3.22535 15.9187 4.54668 15.8133 5.90802 16.504C6.20402 16.6547 6.49468 16.84 6.78002 17.056L7.06668 17.2827V9.33334C7.06668 8.44928 7.41787 7.60144 8.04299 6.97632C8.66812 6.35119 9.51596 6.00001 10.4 6.00001ZM10.4 0.666672C11.74 0.666425 13.0618 0.976888 14.2615 1.57367C15.4612 2.17045 16.5062 3.0373 17.3144 4.1061C18.1226 5.17491 18.672 6.41655 18.9193 7.73349C19.1667 9.05043 19.1053 10.4068 18.74 11.696C18.6958 11.8682 18.6175 12.0298 18.5099 12.1713C18.4022 12.3128 18.2674 12.4313 18.1133 12.5199C17.9591 12.6085 17.7889 12.6654 17.6124 12.6873C17.436 12.7091 17.257 12.6954 17.0859 12.6471C16.9148 12.5987 16.7552 12.5166 16.6163 12.4056C16.4774 12.2946 16.3621 12.157 16.2772 12.0008C16.1923 11.8446 16.1395 11.673 16.1219 11.4961C16.1043 11.3192 16.1222 11.1405 16.1747 10.9707C16.4406 10.0307 16.473 9.03995 16.2691 8.08458C16.0651 7.12921 15.631 6.23809 15.0044 5.48863C14.3778 4.73918 13.5777 4.15405 12.6735 3.7841C11.7694 3.41415 10.7886 3.27056 9.81634 3.3658C8.8441 3.46104 7.90981 3.79224 7.09466 4.33062C6.2795 4.86899 5.60813 5.59827 5.13887 6.45508C4.66961 7.31189 4.41666 8.27032 4.40199 9.2471C4.38732 10.2239 4.61137 11.1895 5.05468 12.06C5.21558 12.3751 5.24473 12.7412 5.1357 13.0777C5.02668 13.4143 4.78843 13.6938 4.47335 13.8547C4.15827 14.0156 3.79218 14.0447 3.45562 13.9357C3.11905 13.8267 2.83958 13.5884 2.67868 13.2733C2.00424 11.952 1.68028 10.4796 1.73783 8.99713C1.79539 7.5147 2.23252 6.07186 3.00737 4.80674C3.78223 3.54162 4.86888 2.49659 6.16327 1.7717C7.45766 1.04681 8.91647 0.666323 10.4 0.666672Z" fill="#1F5B41"/>
</svg>
